<svg width="144" height="144" viewBox="0 0 144 144" fill="none" xmlns="http://www.w3.org/2000/svg">
<g clip-path="url(#clip0_631_23334)">
<path fill-rule="evenodd" clip-rule="evenodd" d="M127.132 16C113.925 2.7 94.129 0 72 0C49.87 0 30.074 2.7 16.867 16C6.341 26.6 0 43.934 0 72C0 100.066 6.342 117.4 16.869 128.001C30.076 141.299 49.871 144 72 144C94.127 144 113.923 141.299 127.13 128.001C137.658 117.4 144 100.066 144 72C144 43.934 137.659 26.601 127.132 16Z" fill="url(#paint0_linear_631_23334)"/>
<circle cx="72" cy="72" r="54" fill="#D42222"/>
<circle cx="72.0002" cy="71.9992" r="37.2414" fill="#D42222"/>
<mask id="mask0_631_23334" style="mask-type:luminance" maskUnits="userSpaceOnUse" x="34" y="34" width="76" height="76">
<circle cx="72.0002" cy="71.9992" r="37.2414" fill="white"/>
</mask>
<g mask="url(#mask0_631_23334)">
<path d="M84.7714 55.8144C84.8245 59.137 83.4951 62.3534 81.1021 64.7393C78.7092 67.1252 75.4476 68.4859 72.0088 68.5389C70.3071 68.5212 68.6409 68.1678 67.0633 67.5139C65.5035 66.8601 64.0854 65.9233 62.8978 64.7393C61.7103 63.5552 60.7707 62.159 60.1503 60.6215C59.5299 59.084 59.2109 57.458 59.2286 55.7968C59.1754 52.4742 60.5049 49.2578 62.8978 46.8719C65.2908 44.486 68.57 43.1252 71.9911 43.0723C75.4299 43.1252 78.6914 44.4862 81.0844 46.8719C83.4774 49.2578 84.7891 52.4742 84.7537 55.7968L84.7714 55.8144Z" fill="white"/>
<circle cx="72" cy="104" r="28" fill="white"/>
</g>
</g>
<defs>
<linearGradient id="paint0_linear_631_23334" x1="0" y1="0" x2="0" y2="144" gradientUnits="userSpaceOnUse">
<stop offset="0.000819493" stop-color="#FF5555"/>
<stop offset="1" stop-color="#FF3C3C"/>
</linearGradient>
<clipPath id="clip0_631_23334">
<rect width="144" height="144" fill="white"/>
</clipPath>
</defs>
</svg>
