<svg width="144" height="144" viewBox="0 0 144 144" fill="none" xmlns="http://www.w3.org/2000/svg">
<g clip-path="url(#clip0_631_23642)">
<path fill-rule="evenodd" clip-rule="evenodd" d="M127.132 16C113.925 2.7 94.129 0 72 0C49.87 0 30.074 2.7 16.867 16C6.341 26.6 0 43.934 0 72C0 100.066 6.342 117.4 16.869 128.001C30.076 141.299 49.871 144 72 144C94.127 144 113.923 141.299 127.13 128.001C137.658 117.4 144 100.066 144 72C144 43.934 137.659 26.601 127.132 16Z" fill="url(#paint0_linear_631_23642)"/>
<circle cx="43.5" cy="43.5" r="25.5" fill="#303030"/>
<path d="M43.6196 30.4355C45.1897 30.4355 46.4624 31.7083 46.4624 33.2783V54.0561C46.4624 55.6261 45.1897 56.8989 43.6196 56.8989C42.0496 56.8989 40.7769 55.6261 40.7769 54.0561V33.2783C40.7769 31.7083 42.0496 30.4355 43.6196 30.4355Z" fill="white"/>
<path d="M54.0556 40.7773C55.6256 40.7773 56.8984 42.0501 56.8984 43.6201C56.8984 45.1901 55.6256 46.4629 54.0556 46.4629H33.2778C31.7078 46.4629 30.4351 45.1901 30.4351 43.6201C30.4351 42.0501 31.7078 40.7773 33.2778 40.7773H54.0556Z" fill="white"/>
<circle cx="43.5" cy="100.5" r="25.5" fill="#303030"/>
<path d="M52.7819 97.0296C54.3518 97.0055 55.6439 98.2585 55.6681 99.8284C55.6922 101.398 54.4392 102.69 52.8693 102.715L33.9827 103.005C32.4128 103.029 31.1207 101.776 31.0965 100.206C31.0724 98.6363 32.3254 97.3441 33.8953 97.32L52.7819 97.0296Z" fill="white"/>
<path fill-rule="evenodd" clip-rule="evenodd" d="M100.5 18C114.583 18 126 29.4521 126 43.5789V100.421C126 114.548 114.583 126 100.5 126C86.4167 126 75 114.548 75 100.421V43.5789C75 29.4521 86.4167 18 100.5 18Z" fill="url(#paint1_linear_631_23642)"/>
<path d="M110.108 63C111.705 63 113 64.3431 113 66C113 67.6569 111.705 69 110.108 69H90.892C89.2948 69 88 67.6569 88 66C88 64.3431 89.2948 63 90.892 63H110.108Z" fill="white"/>
<path d="M110.108 75C111.705 75 113 76.3431 113 78C113 79.6569 111.705 81 110.108 81H90.892C89.2948 81 88 79.6569 88 78C88 76.3431 89.2948 75 90.892 75H110.108Z" fill="white"/>
</g>
<defs>
<linearGradient id="paint0_linear_631_23642" x1="0" y1="0" x2="0" y2="144" gradientUnits="userSpaceOnUse">
<stop stop-color="#F5FAFE"/>
<stop offset="1" stop-color="#C2C4CD"/>
</linearGradient>
<linearGradient id="paint1_linear_631_23642" x1="75.2189" y1="18" x2="75.2189" y2="125.073" gradientUnits="userSpaceOnUse">
<stop stop-color="#16C602"/>
<stop offset="1" stop-color="#14B401"/>
</linearGradient>
<clipPath id="clip0_631_23642">
<rect width="144" height="144" fill="white"/>
</clipPath>
</defs>
</svg>
