<svg width="144" height="144" viewBox="0 0 144 144" fill="none" xmlns="http://www.w3.org/2000/svg">
<g clip-path="url(#clip0_631_23832)">
<mask id="mask0_631_23832" style="mask-type:alpha" maskUnits="userSpaceOnUse" x="0" y="0" width="144" height="144">
<path fill-rule="evenodd" clip-rule="evenodd" d="M16.868 128C30.075 141.3 49.871 144 72 144C94.13 144 113.926 141.3 127.133 128C137.659 117.4 144 100.066 144 72C144 43.934 137.658 26.6 127.131 15.999C113.924 2.70099 94.129 0 72 0C49.873 0 30.077 2.70099 16.87 15.999C6.34201 26.6 0 43.934 0 72C0 100.066 6.341 117.399 16.868 128Z" fill="url(#paint0_linear_631_23832)"/>
<path fill-rule="evenodd" clip-rule="evenodd" d="M16.868 128C30.075 141.3 49.871 144 72 144C94.13 144 113.926 141.3 127.133 128C137.659 117.4 144 100.066 144 72C144 43.934 137.658 26.6 127.131 15.999C113.924 2.70099 94.129 0 72 0C49.873 0 30.077 2.70099 16.87 15.999C6.34201 26.6 0 43.934 0 72C0 100.066 6.341 117.399 16.868 128Z" fill="url(#paint1_radial_631_23832)"/>
<path fill-rule="evenodd" clip-rule="evenodd" d="M16.868 128C30.075 141.3 49.871 144 72 144C94.13 144 113.926 141.3 127.133 128C137.659 117.4 144 100.066 144 72C144 43.934 137.658 26.6 127.131 15.999C113.924 2.70099 94.129 0 72 0C49.873 0 30.077 2.70099 16.87 15.999C6.34201 26.6 0 43.934 0 72C0 100.066 6.341 117.399 16.868 128Z" fill="url(#paint2_radial_631_23832)"/>
</mask>
<g mask="url(#mask0_631_23832)">
<rect x="180" y="180" width="216" height="216" transform="rotate(-180 180 180)" fill="url(#paint3_linear_631_23832)"/>
<rect x="180" y="180" width="216" height="216" transform="rotate(-180 180 180)" fill="url(#paint4_radial_631_23832)"/>
<rect x="180" y="180" width="216" height="216" transform="rotate(-180 180 180)" fill="url(#paint5_radial_631_23832)"/>
<path opacity="0.5" fill-rule="evenodd" clip-rule="evenodd" d="M105.771 89.8145L103 93L110.5 98.5L113.13 93.9565L105.771 89.8145Z" fill="white"/>
<path fill-rule="evenodd" clip-rule="evenodd" d="M76.6885 25.3261C81.2236 25.207 87.3925 26.9102 89.9671 31.6007C90.5296 32.5032 90.7575 34.9249 90.8398 35.2489C91.7494 38.8249 91.6536 41.1236 91.4452 43.225C91.3636 44.048 92.9824 45.4088 92.9291 47.4714C92.8756 49.5341 91.8801 53.2607 90.8973 55.5242C89.6679 58.3553 88.2714 59.2274 86.8537 59.5674C83.5573 60.3576 83.2724 59.2016 81.8405 60.5491C81.1224 61.2251 80.9138 63.4101 80.9467 65.7556C84.7775 68.5695 87.2365 70.726 90.0732 73.5122C94.3288 77.6921 95.5057 80.1526 95.8006 83.8647C96.0953 87.5768 95.2008 93.9568 94.0461 101.297C97.3882 98.588 100.478 95.754 103.314 92.7945C106.154 94.8919 107.147 95.6797 110.517 98.3916C102.909 110.033 94.1025 117.399 89.4622 119.383C84.5148 121.498 70.9 121.023 59.4481 117.691C59.0985 117.589 58.765 117.463 58.4541 117.325C58.1431 117.187 57.8873 117.038 57.6185 116.876C45.1608 109.398 34.2665 96.1388 34.2665 96.1388C31.9987 92.8105 32.4937 90.2577 35.299 86.5485C38.1045 82.839 55.07 65.158 56.6306 63.7651C57.7468 62.7688 61.7956 58.8125 67.1074 58.7199C67.5122 56.7912 67.5699 54.9196 67.2395 53.7783C67.1756 53.5539 65.031 51.9123 63.3142 49.0336C56.3222 53.1936 54.2389 58.7738 50.2639 60.3768C45.5979 62.2582 38.4365 56.3887 38.4365 56.3887C38.484 56.3519 45.7984 50.6858 50.3319 46.0262C53.6629 42.6026 58.8709 44.3643 62.0361 46.3475C61.4357 44.6846 61.08 42.7624 61.2314 40.5971C61.8384 31.9182 66.0059 25.6068 76.6885 25.3261ZM48.0415 92.8617C48.0685 92.9154 51.2905 99.2947 58.2517 105.256C57.3697 85.2521 57.477 84.8838 57.4799 84.8776L48.0415 92.8617Z" fill="url(#paint6_linear_631_23832)"/>
<g filter="url(#filter0_d_631_23832)">
<path fill-rule="evenodd" clip-rule="evenodd" d="M105.771 89.8139L113.13 93.956L114.514 89.9631C114.953 88.6973 115.164 87.3636 115.136 86.0242C115.075 83.0905 113.877 80.2951 111.794 78.2281L109.663 76.1132C108.98 75.4357 107.963 75.2234 107.066 75.5712L106.403 75.8285C104.962 76.3876 104.066 77.8189 104.127 79.3637C104.146 79.8523 104.151 80.2311 104.124 80.2906C104.091 80.3645 103.597 80.8356 103.011 81.3788C101.876 82.4303 101.687 84.1624 102.593 85.4163L105.771 89.8139Z" fill="white"/>
</g>
</g>
</g>
<defs>
<filter id="filter0_d_631_23832" x="69.02" y="52.4062" width="69.1182" height="74.5488" filterUnits="userSpaceOnUse" color-interpolation-filters="sRGB">
<feFlood flood-opacity="0" result="BackgroundImageFix"/>
<feColorMatrix in="SourceAlpha" type="matrix" values="0 0 0 0 0 0 0 0 0 0 0 0 0 0 0 0 0 0 127 0" result="hardAlpha"/>
<feOffset dx="-5" dy="5"/>
<feGaussianBlur stdDeviation="14"/>
<feColorMatrix type="matrix" values="0 0 0 0 0.131193 0 0 0 0 0.83539 0 0 0 0 1 0 0 0 0.2 0"/>
<feBlend mode="normal" in2="BackgroundImageFix" result="effect1_dropShadow_631_23832"/>
<feBlend mode="normal" in="SourceGraphic" in2="effect1_dropShadow_631_23832" result="shape"/>
</filter>
<linearGradient id="paint0_linear_631_23832" x1="107.721" y1="72" x2="107.721" y2="0.558571" gradientUnits="userSpaceOnUse">
<stop stop-color="#00D0BC"/>
<stop offset="1" stop-color="#03D957"/>
</linearGradient>
<radialGradient id="paint1_radial_631_23832" cx="0" cy="0" r="1" gradientUnits="userSpaceOnUse" gradientTransform="translate(25.1488 123.144) rotate(-46.8006) scale(122.622 328.812)">
<stop stop-color="#0392E5"/>
<stop offset="1" stop-color="#1CAAFC" stop-opacity="0.01"/>
</radialGradient>
<radialGradient id="paint2_radial_631_23832" cx="0" cy="0" r="1" gradientUnits="userSpaceOnUse" gradientTransform="translate(149.975 -10.8504) rotate(81.1055) scale(138.876 120.281)">
<stop stop-color="#EDE600" stop-opacity="0.919171"/>
<stop offset="1" stop-color="#9BFF00" stop-opacity="0.01"/>
</radialGradient>
<linearGradient id="paint3_linear_631_23832" x1="234.419" y1="288" x2="234.419" y2="395.162" gradientUnits="userSpaceOnUse">
<stop stop-color="#00D0BC"/>
<stop offset="0.672307" stop-color="#03D957"/>
<stop offset="1" stop-color="#03D957"/>
</linearGradient>
<radialGradient id="paint4_radial_631_23832" cx="0" cy="0" r="1" gradientUnits="userSpaceOnUse" gradientTransform="translate(331.264 240.295) rotate(133.658) scale(119.369 320.089)">
<stop stop-color="#0392E5"/>
<stop offset="1" stop-color="#1CAAFC" stop-opacity="0.01"/>
</radialGradient>
<radialGradient id="paint5_radial_631_23832" cx="0" cy="0" r="1" gradientUnits="userSpaceOnUse" gradientTransform="translate(206.271 369.489) rotate(-93.8452) scale(143.107 124.655)">
<stop stop-color="#EDE600" stop-opacity="0.919171"/>
<stop offset="1" stop-color="#9BFF00" stop-opacity="0.01"/>
</radialGradient>
<linearGradient id="paint6_linear_631_23832" x1="76.862" y1="86.6054" x2="62.7908" y2="113.642" gradientUnits="userSpaceOnUse">
<stop stop-color="white"/>
<stop offset="1" stop-color="white" stop-opacity="0.9"/>
</linearGradient>
<clipPath id="clip0_631_23832">
<rect width="144" height="144" fill="white"/>
</clipPath>
</defs>
</svg>
