<svg width="144" height="144" viewBox="0 0 144 144" fill="none" xmlns="http://www.w3.org/2000/svg">
<g clip-path="url(#clip0_631_23947)">
<path fill-rule="evenodd" clip-rule="evenodd" d="M127.132 16C113.925 2.7 94.129 0 72 0C49.87 0 30.074 2.7 16.867 16C6.341 26.6 0 43.934 0 72C0 100.066 6.342 117.4 16.869 128.001C30.076 141.299 49.871 144 72 144C94.127 144 113.923 141.299 127.13 128.001C137.658 117.4 144 100.066 144 72C144 43.934 137.659 26.601 127.132 16Z" fill="url(#paint0_linear_631_23947)"/>
<g opacity="0.6">
<path d="M106.734 36H94.1208C92.6392 36 91.3056 36.6203 90.3489 37.6116L90.3383 37.6126L72.0099 57.1846L71.9999 57.1738L71.9899 57.1846L53.6615 37.6126L53.6511 37.6116C52.6943 36.6204 51.3607 36 49.8792 36H37.2659C34.3576 36 32 38.3727 32 41.2998L32.0226 48.6873L32 52.7663C32 52.7663 33.9544 51.2699 36.1542 52.9571L55.1448 72.5835L64.7405 82.5006C66.7737 84.4473 69.3869 85.4057 71.9999 85.4035C74.6131 85.4057 77.2262 84.4473 79.2594 82.5006L88.8551 72.5835L111.978 48.6873L112 41.2998C112 38.3727 109.643 36 106.734 36Z" fill="url(#paint1_linear_631_23947)"/>
<path d="M106.734 36H94.1208C92.6392 36 91.3056 36.6203 90.3489 37.6116L90.3383 37.6126L72.0099 57.1846L71.9999 57.1738L71.9899 57.1846L53.6615 37.6126L53.6511 37.6116C52.6943 36.6204 51.3607 36 49.8792 36H37.2659C34.3576 36 32 38.3727 32 41.2998L32.0226 48.6873L32 52.7663C32 52.7663 33.9544 51.2699 36.1542 52.9571L55.1448 72.5835L64.7405 82.5006C66.7737 84.4473 69.3869 85.4057 71.9999 85.4035C74.6131 85.4057 77.2262 84.4473 79.2594 82.5006L88.8551 72.5835L111.978 48.6873L112 41.2998C112 38.3727 109.643 36 106.734 36Z" fill="white"/>
</g>
<path d="M32 41.3008L32.0225 48.6885L32 52.7676C32 52.7676 33.9545 51.2708 36.1543 52.958L55.1445 72.585V102.001C55.1445 105.315 52.4582 108.001 49.1445 108.001H38C34.6863 108.001 32 105.315 32 102.001V41.3008ZM50.7695 36.0781C51.8947 36.2711 52.898 36.8222 53.6592 37.6123H53.6514C52.8907 36.8244 51.8915 36.272 50.7695 36.0781ZM36.2041 36.1084H36.2051H36.2041Z" fill="white"/>
<path d="M106.7 36H94.0866C91.1783 36 88.8208 38.3727 88.8208 41.2997L88.8208 101.999C88.8208 105.313 91.5071 107.999 94.8208 107.999H105.965C109.279 107.999 111.965 105.313 111.965 101.999V41.2997C111.965 38.3727 109.608 36 106.7 36Z" fill="white"/>
</g>
<defs>
<linearGradient id="paint0_linear_631_23947" x1="0" y1="0" x2="0" y2="144" gradientUnits="userSpaceOnUse">
<stop stop-color="#20AFFF"/>
<stop offset="1" stop-color="#115CFF"/>
</linearGradient>
<linearGradient id="paint1_linear_631_23947" x1="0.652183" y1="67.4331" x2="90.4105" y2="67.4331" gradientUnits="userSpaceOnUse">
<stop stop-color="white" stop-opacity="0.8"/>
<stop offset="1" stop-color="white" stop-opacity="0.5"/>
</linearGradient>
<clipPath id="clip0_631_23947">
<rect width="144" height="144" fill="white"/>
</clipPath>
</defs>
</svg>
