<svg width="144" height="144" viewBox="0 0 144 144" fill="none" xmlns="http://www.w3.org/2000/svg">
<g clip-path="url(#clip0_631_23269)">
<path fill-rule="evenodd" clip-rule="evenodd" d="M127.132 16C113.925 2.7 94.129 0 72 0C49.87 0 30.074 2.7 16.867 16C6.341 26.6 0 43.934 0 72C0 100.066 6.342 117.4 16.869 128.001C30.076 141.299 49.871 144 72 144C94.127 144 113.923 141.299 127.13 128.001C137.658 117.4 144 100.066 144 72C144 43.934 137.659 26.601 127.132 16Z" fill="url(#paint0_linear_631_23269)"/>
<circle cx="71.9994" cy="72.0013" r="42.4264" transform="rotate(180 71.9994 72.0013)" fill="white"/>
<path d="M57.7146 57.7151C82.5673 32.8624 109.111 19.1115 117.001 27.0012C124.89 34.8911 111.139 61.4346 86.2859 86.2873C61.4332 111.14 34.8905 124.891 27.0007 117.001C19.1111 109.111 32.8618 82.5678 57.7146 57.7151ZM109.317 42.174C104.978 37.835 86.4292 49.3481 67.8884 67.8889C49.3476 86.4297 37.8345 104.978 42.1736 109.318C46.5129 113.657 65.0613 102.144 83.6023 83.6028C102.143 65.0618 113.656 46.5134 109.317 42.174Z" fill="url(#paint1_linear_631_23269)"/>
<path d="M57.7146 57.7151C82.5673 32.8624 109.111 19.1115 117.001 27.0012C124.89 34.8911 111.139 61.4346 86.2859 86.2873C61.4332 111.14 34.8905 124.891 27.0007 117.001C19.1111 109.111 32.8618 82.5678 57.7146 57.7151ZM109.317 42.174C104.978 37.835 86.4292 49.3481 67.8884 67.8889C49.3476 86.4297 37.8345 104.978 42.1736 109.318C46.5129 113.657 65.0613 102.144 83.6023 83.6028C102.143 65.0618 113.656 46.5134 109.317 42.174Z" fill="url(#paint2_linear_631_23269)"/>
<path d="M102.209 42.2129C109.763 49.8733 114.428 60.3913 114.428 72C114.428 95.4315 95.4324 114.427 72.001 114.427C60.392 114.427 49.8743 109.762 42.2139 102.207C45.1741 94.116 54.7707 80.9989 67.8838 67.8857C80.999 54.7705 94.1182 45.1716 102.209 42.2129Z" fill="white"/>
</g>
<defs>
<linearGradient id="paint0_linear_631_23269" x1="0" y1="0" x2="0" y2="144" gradientUnits="userSpaceOnUse">
<stop stop-color="#7043EF"/>
<stop offset="1" stop-color="#3E14D8"/>
</linearGradient>
<linearGradient id="paint1_linear_631_23269" x1="41.2866" y1="131.287" x2="131.287" y2="41.287" gradientUnits="userSpaceOnUse">
<stop stop-color="#8E99FF"/>
<stop offset="1" stop-color="#72E3E3"/>
</linearGradient>
<linearGradient id="paint2_linear_631_23269" x1="41.2866" y1="131.287" x2="131.287" y2="41.287" gradientUnits="userSpaceOnUse">
<stop stop-color="#8E99FF"/>
<stop offset="1" stop-color="#40EFEF"/>
</linearGradient>
<clipPath id="clip0_631_23269">
<rect width="144" height="144" fill="white"/>
</clipPath>
</defs>
</svg>
