<svg width="144" height="144" viewBox="0 0 144 144" fill="none" xmlns="http://www.w3.org/2000/svg">
<g clip-path="url(#clip0_631_23258)">
<path fill-rule="evenodd" clip-rule="evenodd" d="M127.132 16C113.925 2.7 94.129 0 72 0C49.87 0 30.074 2.7 16.867 16C6.341 26.6 0 43.934 0 72C0 100.066 6.342 117.4 16.869 128.001C30.076 141.299 49.871 144 72 144C94.127 144 113.923 141.299 127.13 128.001C137.658 117.4 144 100.066 144 72C144 43.934 137.659 26.601 127.132 16Z" fill="url(#paint0_linear_631_23258)"/>
<path opacity="0.7" fill-rule="evenodd" clip-rule="evenodd" d="M38.2969 103.383C38.2969 103.383 42.9763 106.133 42.0386 111.801C41.5909 114.507 40.3258 116.391 39.482 117.549C38.5815 118.784 39.3685 119.208 40.9342 118.908C51.4414 116.899 61.2348 104.055 61.2348 104.055L38.2969 103.383Z" fill="white"/>
<path d="M72 28C86.4453 28 99.368 29.5774 107.989 37.3496C114.861 43.5446 119 53.6741 119 70.0752C119 86.4764 114.86 96.6058 107.987 102.801C99.3661 110.572 86.444 112.15 72 112.15C57.5547 112.15 44.633 110.572 36.0117 102.801C29.14 96.6058 25 86.4763 25 70.0752C25 53.6741 29.1396 43.544 36.0107 37.3496C44.632 29.5777 57.5543 28 72 28ZM48.5 62.2656C44.1739 62.2658 40.667 65.7723 40.667 70.0977C40.6672 74.4228 44.1741 77.9296 48.5 77.9297C52.8259 77.9295 56.3337 74.4228 56.334 70.0977C56.334 65.7723 52.8261 62.2658 48.5 62.2656ZM72 62.2656C67.6739 62.2658 64.167 65.7723 64.167 70.0977C64.1672 74.4228 67.6741 77.9296 72 77.9297C76.3259 77.9295 79.8337 74.4228 79.834 70.0977C79.834 65.7723 76.326 62.2658 72 62.2656ZM95.5 62.2656C91.1739 62.2658 87.667 65.7723 87.667 70.0977C87.6672 74.4228 91.174 77.9296 95.5 77.9297C99.8259 77.9295 103.334 74.4228 103.334 70.0977C103.334 65.7723 99.826 62.2658 95.5 62.2656Z" fill="white"/>
</g>
<defs>
<linearGradient id="paint0_linear_631_23258" x1="0" y1="0" x2="0" y2="144" gradientUnits="userSpaceOnUse">
<stop stop-color="#20AFFF"/>
<stop offset="1" stop-color="#115CFF"/>
</linearGradient>
<clipPath id="clip0_631_23258">
<rect width="144" height="144" fill="white"/>
</clipPath>
</defs>
</svg>
