<svg width="144" height="144" viewBox="0 0 144 144" fill="none" xmlns="http://www.w3.org/2000/svg">
<g clip-path="url(#clip0_631_23573)">
<mask id="mask0_631_23573" style="mask-type:luminance" maskUnits="userSpaceOnUse" x="0" y="0" width="144" height="144">
<path fill-rule="evenodd" clip-rule="evenodd" d="M127.132 16C113.925 2.7 94.129 0 72 0C49.87 0 30.074 2.7 16.867 16C6.341 26.6 0 43.934 0 72C0 100.066 6.342 117.4 16.869 128.001C30.076 141.299 49.871 144 72 144C94.127 144 113.923 141.299 127.13 128.001C137.658 117.4 144 100.066 144 72C144 43.934 137.659 26.601 127.132 16Z" fill="white"/>
</mask>
<g mask="url(#mask0_631_23573)">
<path fill-rule="evenodd" clip-rule="evenodd" d="M127.132 16C113.925 2.7 94.129 0 72 0C49.87 0 30.074 2.7 16.867 16C6.341 26.6 0 43.934 0 72C0 100.066 6.342 117.4 16.869 128.001C30.076 141.299 49.871 144 72 144C94.127 144 113.923 141.299 127.13 128.001C137.658 117.4 144 100.066 144 72C144 43.934 137.659 26.601 127.132 16Z" fill="url(#paint0_linear_631_23573)"/>
<path d="M18 55C18 57.2091 19.7909 59 22 59C24.2091 59 26 57.2091 26 55V48H118V55C118 57.2091 119.791 59 122 59C124.209 59 126 57.2091 126 55V48H144V144H0V48H18V55Z" fill="white"/>
<path d="M43.4239 18.514H47.6879L53.1999 32.762L58.5559 18.514H62.8199V37H59.7259V23.116L54.5519 37H51.6919L46.4919 23.428V37H43.4239V18.514ZM65.95 27.77C65.95 25.8287 66.3227 24.1387 67.068 22.7C67.8134 21.2613 68.8447 20.152 70.162 19.372C71.4967 18.5747 73.048 18.176 74.816 18.176C76.6014 18.176 78.1527 18.5747 79.47 19.372C80.8047 20.152 81.8447 21.2613 82.59 22.7C83.3354 24.1387 83.708 25.8287 83.708 27.77C83.708 29.694 83.3354 31.3753 82.59 32.814C81.8447 34.2527 80.8047 35.3707 79.47 36.168C78.1354 36.948 76.584 37.338 74.816 37.338C73.048 37.338 71.4967 36.948 70.162 36.168C68.8447 35.3707 67.8134 34.2527 67.068 32.814C66.3227 31.3753 65.95 29.694 65.95 27.77ZM69.304 27.77C69.304 29.7633 69.798 31.3407 70.786 32.502C71.7914 33.6633 73.1347 34.244 74.816 34.244C76.5147 34.244 77.858 33.6633 78.846 32.502C79.8514 31.3407 80.354 29.7633 80.354 27.77C80.354 25.7593 79.8514 24.1733 78.846 23.012C77.858 21.8507 76.5147 21.27 74.816 21.27C73.1347 21.27 71.7914 21.8507 70.786 23.012C69.798 24.1733 69.304 25.7593 69.304 27.77ZM86.8165 18.514H90.5345L98.4645 32.216V18.514H101.584V37H97.8665L89.9365 23.272V37H86.8165V18.514Z" fill="white"/>
</g>
<g clip-path="url(#clip1_631_23573)" filter="url(#filter0_d_631_23573)">
<path d="M66.2962 102.668C66.2962 100.412 65.5042 98.516 63.9202 96.98C62.3842 95.444 59.8882 94.676 56.4322 94.676H49.2322V87.404H55.6402C58.7122 87.404 61.0402 86.732 62.6242 85.388C64.2082 83.996 65.0002 82.292 65.0002 80.276C65.0002 78.212 64.2562 76.556 62.7682 75.308C61.3282 74.012 59.1922 73.364 56.3602 73.364C54.1042 73.364 52.0402 73.964 50.1682 75.164C48.3442 76.316 46.9522 78.068 45.9922 80.42L38.5042 76.676C40.1362 72.932 42.5122 70.124 45.6322 68.252C48.7522 66.332 52.4242 65.372 56.6482 65.372C62.2642 65.372 66.5602 66.62 69.5362 69.116C72.5122 71.564 74.0002 74.804 74.0002 78.836C74.0002 81.476 73.3522 83.804 72.0562 85.82C70.7602 87.836 68.7922 89.42 66.1522 90.572C69.2242 91.676 71.5042 93.332 72.9922 95.54C74.5282 97.748 75.2962 100.364 75.2962 103.388C75.2962 106.076 74.6002 108.572 73.2082 110.876C71.8642 113.132 69.8242 114.956 67.0882 116.348C64.3522 117.74 60.8722 118.436 56.6482 118.436C52.1842 118.436 48.2482 117.428 44.8402 115.412C41.4322 113.348 38.8642 110.324 37.1362 106.34L44.6962 102.74C45.7522 105.284 47.2882 107.204 49.3042 108.5C51.3682 109.796 53.6482 110.444 56.1442 110.444C59.6962 110.444 62.2642 109.676 63.8482 108.14C65.4802 106.604 66.2962 104.78 66.2962 102.668ZM94.5791 76.46L82.4111 83.372L78.8831 75.956L97.8191 66.308H103.291V117.5H94.5791V76.46Z" fill="black"/>
</g>
</g>
<defs>
<filter id="filter0_d_631_23573" x="-5" y="45" width="154" height="106" filterUnits="userSpaceOnUse" color-interpolation-filters="sRGB">
<feFlood flood-opacity="0" result="BackgroundImageFix"/>
<feColorMatrix in="SourceAlpha" type="matrix" values="0 0 0 0 0 0 0 0 0 0 0 0 0 0 0 0 0 0 127 0" result="hardAlpha"/>
<feOffset dy="2"/>
<feGaussianBlur stdDeviation="2.5"/>
<feColorMatrix type="matrix" values="0 0 0 0 0.229563 0 0 0 0 0.229563 0 0 0 0 0.229563 0 0 0 0.1 0"/>
<feBlend mode="normal" in2="BackgroundImageFix" result="effect1_dropShadow_631_23573"/>
<feBlend mode="normal" in="SourceGraphic" in2="effect1_dropShadow_631_23573" result="shape"/>
</filter>
<linearGradient id="paint0_linear_631_23573" x1="1.94487" y1="3.88973" x2="1.94487" y2="144" gradientUnits="userSpaceOnUse">
<stop offset="0.000819493" stop-color="#05C5B6"/>
<stop offset="0.368503" stop-color="#06BAB5"/>
<stop offset="0.999836" stop-color="#0B98B3"/>
</linearGradient>
<clipPath id="clip0_631_23573">
<rect width="144" height="144" fill="white"/>
</clipPath>
<clipPath id="clip1_631_23573">
<rect width="144" height="96" fill="white" transform="translate(0 48)"/>
</clipPath>
</defs>
</svg>
