<svg width="144" height="144" viewBox="0 0 144 144" fill="none" xmlns="http://www.w3.org/2000/svg">
<g clip-path="url(#clip0_631_23920)">
<path fill-rule="evenodd" clip-rule="evenodd" d="M127.132 16C113.925 2.7 94.129 0 72 0C49.87 0 30.074 2.7 16.867 16C6.341 26.6 0 43.934 0 72C0 100.066 6.342 117.4 16.869 128.001C30.076 141.299 49.871 144 72 144C94.127 144 113.923 141.299 127.13 128.001C137.658 117.4 144 100.066 144 72C144 43.934 137.659 26.601 127.132 16Z" fill="url(#paint0_linear_631_23920)"/>
<path fill-rule="evenodd" clip-rule="evenodd" d="M127.132 16C113.925 2.7 94.129 0 72 0C49.87 0 30.074 2.7 16.867 16C6.341 26.6 0 43.934 0 72C0 100.066 6.342 117.4 16.869 128.001C30.076 141.299 49.871 144 72 144C94.127 144 113.923 141.299 127.13 128.001C137.658 117.4 144 100.066 144 72C144 43.934 137.659 26.601 127.132 16Z" fill="url(#paint1_linear_631_23920)"/>
<path opacity="0.9" d="M24 47.8C24 43.3196 24 41.0794 24.8719 39.3681C25.6389 37.8628 26.8628 36.6389 28.3681 35.8719C30.0794 35 32.3196 35 36.8 35H107.2C111.68 35 113.921 35 115.632 35.8719C117.137 36.6389 118.361 37.8628 119.128 39.3681C120 41.0794 120 43.3196 120 47.8V96.2C120 100.68 120 102.921 119.128 104.632C118.361 106.137 117.137 107.361 115.632 108.128C113.921 109 111.68 109 107.2 109H36.8C32.3196 109 30.0794 109 28.3681 108.128C26.8628 107.361 25.6389 106.137 24.8719 104.632C24 102.921 24 100.68 24 96.2V47.8Z" fill="white"/>
<path d="M32 52.6C32 49.2397 32 47.5595 32.654 46.2761C33.2292 45.1471 34.1471 44.2292 35.2761 43.654C36.5595 43 38.2397 43 41.6 43H102.4C105.76 43 107.44 43 108.724 43.654C109.853 44.2292 110.771 45.1471 111.346 46.2761C112 47.5595 112 49.2397 112 52.6V91.4C112 94.7603 112 96.4405 111.346 97.7239C110.771 98.8529 109.853 99.7708 108.724 100.346C107.44 101 105.76 101 102.4 101H41.6C38.2397 101 36.5595 101 35.2761 100.346C34.1471 99.7708 33.2292 98.8529 32.654 97.7239C32 96.4405 32 94.7603 32 91.4V52.6Z" fill="#6CE20A"/>
<path fill-rule="evenodd" clip-rule="evenodd" d="M32 62.6C32 59.2397 32 57.5595 32.654 56.2761C33.2292 55.1471 34.1471 54.2292 35.2761 53.654C36.5595 53 38.2397 53 41.6 53H102.4C105.76 53 107.44 53 108.724 53.654C109.853 54.2292 110.771 55.1471 111.346 56.2761C112 57.5595 112 59.2397 112 62.6V91.4C112 94.7603 112 96.4405 111.346 97.7239C110.771 98.8529 109.853 99.7708 108.724 100.346C107.44 101 105.76 101 102.4 101H41.6C38.2397 101 36.5595 101 35.2761 100.346C34.1471 99.7708 33.2292 98.8529 32.654 97.7239C32 96.4405 32 94.7603 32 91.4L32 62.6Z" fill="#27A3FF"/>
<path fill-rule="evenodd" clip-rule="evenodd" d="M32 73.6C32 70.2397 32 68.5595 32.654 67.2761C33.2292 66.1471 34.1471 65.2292 35.2761 64.654C36.5595 64 38.2397 64 41.6 64H102.4C105.76 64 107.44 64 108.724 64.654C109.853 65.2292 110.771 66.1471 111.346 67.2761C112 68.5595 112 70.2397 112 73.6V91.4C112 94.7603 112 96.4405 111.346 97.7239C110.771 98.8529 109.853 99.7708 108.724 100.346C107.44 101 105.76 101 102.4 101H41.6C38.2397 101 36.5595 101 35.2761 100.346C34.1471 99.7708 33.2292 98.8529 32.654 97.7239C32 96.4405 32 94.7603 32 91.4L32 73.6Z" fill="#4037FC"/>
<mask id="mask0_631_23920" style="mask-type:luminance" maskUnits="userSpaceOnUse" x="62" y="33" width="60" height="78">
<path fill-rule="evenodd" clip-rule="evenodd" d="M82 33H122V111H62L82 33Z" fill="white"/>
</mask>
<g mask="url(#mask0_631_23920)">
<path d="M24 47.8C24 43.3196 24 41.0794 24.8719 39.3681C25.6389 37.8628 26.8628 36.6389 28.3681 35.8719C30.0794 35 32.3196 35 36.8 35H107.2C111.68 35 113.921 35 115.632 35.8719C117.137 36.6389 118.361 37.8628 119.128 39.3681C120 41.0794 120 43.3196 120 47.8V96.2C120 100.68 120 102.921 119.128 104.632C118.361 106.137 117.137 107.361 115.632 108.128C113.921 109 111.68 109 107.2 109H36.8C32.3196 109 30.0794 109 28.3681 108.128C26.8628 107.361 25.6389 106.137 24.8719 104.632C24 102.921 24 100.68 24 96.2V47.8Z" fill="white"/>
</g>
</g>
<defs>
<linearGradient id="paint0_linear_631_23920" x1="0" y1="0" x2="0" y2="144" gradientUnits="userSpaceOnUse">
<stop stop-color="#20AFFF"/>
<stop offset="1" stop-color="#115CFF"/>
</linearGradient>
<linearGradient id="paint1_linear_631_23920" x1="-56.3425" y1="56.2447" x2="56.1468" y2="168.93" gradientUnits="userSpaceOnUse">
<stop stop-color="#43A1FF"/>
<stop offset="1" stop-color="#480BF0"/>
</linearGradient>
<clipPath id="clip0_631_23920">
<rect width="144" height="144" fill="white"/>
</clipPath>
</defs>
</svg>
