<svg width="144" height="144" viewBox="0 0 144 144" fill="none" xmlns="http://www.w3.org/2000/svg">
<g clip-path="url(#clip0_631_23857)">
<g clip-path="url(#clip1_631_23857)">
<path fill-rule="evenodd" clip-rule="evenodd" d="M127.132 15.9999C113.925 2.69999 94.1287 0 71.9997 0C49.8698 0 30.0739 2.69999 16.8669 15.9999C6.34098 26.5999 0 43.9338 0 71.9997C0 100.066 6.34198 117.4 16.8689 128.001C30.0759 141.299 49.8708 143.999 71.9997 143.999C94.1267 143.999 113.923 141.299 127.13 128.001C137.658 117.4 143.999 100.066 143.999 71.9997C143.999 43.9338 137.659 26.6009 127.132 15.9999Z" fill="url(#paint0_linear_631_23857)"/>
<path fill-rule="evenodd" clip-rule="evenodd" d="M127.132 15.9999C113.925 2.69999 94.1287 0 71.9997 0C49.8698 0 30.0739 2.69999 16.8669 15.9999C6.34098 26.5999 0 43.9338 0 71.9997C0 100.066 6.34198 117.4 16.8689 128.001C30.0759 141.299 49.8708 143.999 71.9997 143.999C94.1267 143.999 113.923 141.299 127.13 128.001C137.658 117.4 143.999 100.066 143.999 71.9997C143.999 43.9338 137.659 26.6009 127.132 15.9999Z" fill="url(#paint1_linear_631_23857)"/>
</g>
<path fill-rule="evenodd" clip-rule="evenodd" d="M94.123 91.6943C86.8756 91.6944 81.0003 97.5829 81 104.847C81 112.111 86.8754 118 94.123 118C101.371 118 107.246 112.111 107.246 104.847C107.246 97.5829 101.371 91.6944 94.123 91.6943ZM94.123 99.3086C97.1295 99.3086 99.5905 101.775 99.5908 104.847C99.5908 107.919 97.1297 110.386 94.123 110.386C91.1164 110.386 88.6553 107.919 88.6553 104.847C88.6556 101.775 91.1166 99.3087 94.123 99.3086Z" fill="white"/>
<path fill-rule="evenodd" clip-rule="evenodd" d="M49.373 91.6943C42.1256 91.6944 36.2503 97.5829 36.25 104.847C36.25 112.111 42.1254 118 49.373 118C56.6207 118 62.4961 112.111 62.4961 104.847C62.4958 97.5829 56.6205 91.6944 49.373 91.6943ZM49.373 99.3086C52.3795 99.3086 54.8405 101.775 54.8408 104.847C54.8408 107.919 52.3797 110.386 49.373 110.386C46.3664 110.386 43.9053 107.919 43.9053 104.847C43.9056 101.775 46.3666 99.3087 49.373 99.3086Z" fill="white"/>
<path fill-rule="evenodd" clip-rule="evenodd" d="M72 54.5C61.5066 54.5 53 63.0066 53 73.5C53 83.9934 61.5066 92.5 72 92.5C82.4934 92.5 91 83.9934 91 73.5C91 63.0066 82.4934 54.5 72 54.5ZM72 63.3516C77.5932 63.3516 82.1338 67.892 82.1338 73.5C82.1338 79.108 77.5932 83.6484 72 83.6484C66.4068 83.6484 61.8662 79.108 61.8662 73.5C61.8662 67.892 66.4068 63.3516 72 63.3516Z" fill="white"/>
<path fill-rule="evenodd" clip-rule="evenodd" d="M108.877 49.25C101.629 49.25 95.7541 55.1385 95.7539 62.4023C95.7539 69.6664 101.629 75.5557 108.877 75.5557C116.125 75.5556 122 69.6664 122 62.4023C122 55.1385 116.124 49.25 108.877 49.25ZM108.877 56.8643C111.883 56.8643 114.345 59.3305 114.345 62.4023C114.345 65.4744 111.884 67.9414 108.877 67.9414C105.87 67.9414 103.409 65.4744 103.409 62.4023C103.409 59.3305 105.87 56.8643 108.877 56.8643Z" fill="white"/>
<path fill-rule="evenodd" clip-rule="evenodd" d="M35.123 49.25C27.8756 49.2501 22.0002 55.1385 22 62.4023C22 69.6663 27.8754 75.5556 35.123 75.5557C42.3707 75.5556 48.2461 69.6664 48.2461 62.4023C48.2459 55.1385 42.3706 49.25 35.123 49.25ZM35.123 56.8643C38.1296 56.8643 40.5906 59.3305 40.5908 62.4023C40.5908 65.4744 38.1297 67.9414 35.123 67.9414C32.1164 67.9413 29.6553 65.4743 29.6553 62.4023C29.6555 59.3305 32.1166 56.8644 35.123 56.8643Z" fill="white"/>
<path fill-rule="evenodd" clip-rule="evenodd" d="M72.0029 23C64.7554 23 58.8801 28.8885 58.8799 36.1523C58.8799 43.4164 64.7552 49.3057 72.0029 49.3057C79.2506 49.3056 85.126 43.4163 85.126 36.1523C85.1258 28.8885 79.2504 23.0001 72.0029 23ZM72.0029 30.6143C75.0094 30.6143 77.4705 33.0805 77.4707 36.1523C77.4707 39.2244 75.0096 41.6913 72.0029 41.6914C68.9962 41.6914 66.5352 39.2244 66.5352 36.1523C66.5354 33.0805 68.9964 30.6143 72.0029 30.6143Z" fill="white"/>
<path d="M67.7305 86.9795L57.9756 100.295L50.7158 94.9756L60.4707 81.6611L67.7305 86.9795ZM92.7314 94.9775L85.4688 100.293L75.7236 86.9775L82.9863 81.6621L92.7314 94.9775ZM101.386 69.75L85.6709 74.835L82.8994 66.2725L98.6143 61.1865L101.386 69.75ZM61.1631 65.6816L58.4033 74.248L42.6201 69.1621L45.3799 60.5957L61.1631 65.6816ZM76.5029 45.2832V60.4648H67.5029V45.2832H76.5029Z" fill="white"/>
</g>
<defs>
<linearGradient id="paint0_linear_631_23857" x1="0" y1="0" x2="0" y2="143.999" gradientUnits="userSpaceOnUse">
<stop stop-color="#148CF5"/>
<stop offset="0.999508" stop-color="#1C6FFF"/>
</linearGradient>
<linearGradient id="paint1_linear_631_23857" x1="0" y1="0" x2="0" y2="143.999" gradientUnits="userSpaceOnUse">
<stop stop-color="#20AFFF"/>
<stop offset="1" stop-color="#115CFF"/>
</linearGradient>
<clipPath id="clip0_631_23857">
<rect width="144" height="144" fill="white"/>
</clipPath>
<clipPath id="clip1_631_23857">
<rect width="144" height="144" fill="white"/>
</clipPath>
</defs>
</svg>
