<svg width="144" height="144" viewBox="0 0 144 144" fill="none" xmlns="http://www.w3.org/2000/svg">
<g clip-path="url(#clip0_631_23288)">
<path d="M127.13 16C113.93 2.7 94.13 0 72 0C49.87 0 30.07 2.7 16.87 16C6.34 26.6 0 43.93 0 72C0 100.07 6.34 117.4 16.87 128C30.08 141.3 49.87 144 72 144C94.13 144 113.92 141.3 127.13 128C137.66 117.4 144 100.06 144 72C144 43.94 137.66 26.6 127.13 16Z" fill="url(#paint0_linear_631_23288)"/>
<path d="M127.13 16C113.93 2.7 94.13 0 72 0C49.87 0 30.07 2.7 16.87 16C6.34 26.6 0 43.93 0 72C0 100.07 6.34 117.4 16.87 128C30.08 141.3 49.87 144 72 144C94.13 144 113.92 141.3 127.13 128C137.66 117.4 144 100.06 144 72C144 43.94 137.66 26.6 127.13 16Z" fill="url(#paint1_linear_631_23288)"/>
<path d="M50 29H98.5C101.755 29 103.383 29 104.714 29.3754C108.063 30.3199 110.68 32.9369 111.625 36.2856C112 37.6168 112 39.2446 112 42.5V81H89.5C86.2446 81 84.6168 81 83.2856 81.3754C79.9369 82.3199 77.3199 84.9369 76.3754 88.2856C76 89.6168 76 91.2446 76 94.5V117H50V29Z" fill="white"/>
<path opacity="0.85" d="M50 117H42C36.4772 117 32 112.523 32 107V103C35.866 103 39 99.866 39 96C39 92.134 35.866 89 32 89V80C35.866 80 39 76.866 39 73C39 69.134 35.866 66 32 66V57C35.866 57 39 53.866 39 50C39 46.134 35.866 43 32 43V39C32 33.4772 36.4772 29 42 29H50V117Z" fill="white"/>
<path opacity="0.6" d="M112 81H76V117L112 81Z" fill="white"/>
</g>
<defs>
<linearGradient id="paint0_linear_631_23288" x1="150.048" y1="144" x2="150.048" y2="0.575997" gradientUnits="userSpaceOnUse">
<stop stop-color="#E71111"/>
<stop offset="1" stop-color="#FF5757"/>
</linearGradient>
<linearGradient id="paint1_linear_631_23288" x1="6.6392" y1="13.3324" x2="6.6392" y2="144" gradientUnits="userSpaceOnUse">
<stop stop-color="#FF4343"/>
<stop offset="1" stop-color="#DD0000"/>
</linearGradient>
<clipPath id="clip0_631_23288">
<rect width="144" height="144" fill="white"/>
</clipPath>
</defs>
</svg>
