<svg width="144" height="144" viewBox="0 0 144 144" fill="none" xmlns="http://www.w3.org/2000/svg">
<g clip-path="url(#clip0_631_23248)">
<path fill-rule="evenodd" clip-rule="evenodd" d="M127.132 16C113.925 2.7 94.129 0 72 0C49.87 0 30.074 2.7 16.867 16C6.341 26.6 0 43.934 0 72C0 100.066 6.342 117.4 16.869 128.001C30.076 141.299 49.871 144 72 144C94.127 144 113.923 141.299 127.13 128.001C137.658 117.4 144 100.066 144 72C144 43.934 137.659 26.601 127.132 16Z" fill="url(#paint0_linear_631_23248)"/>
<path d="M56.9608 35.5421C59.9682 27.5779 67.6646 21.5493 76.5477 22.0265C78.0252 22.1059 79.3421 22.3477 80.5116 22.6935C73.7439 32.7018 68.979 44.1836 66.7957 56.5597C66.7646 56.6789 66.7377 56.8002 66.7157 56.923C66.4675 58.3209 66.2544 59.8301 66.075 61.4503C65.7236 64.4027 65.5179 67.3999 65.4657 70.4347C65.449 70.943 65.4349 71.4587 65.4227 71.9816C65.4349 72.5041 65.449 73.0194 65.4657 73.5275C65.5178 76.5626 65.7237 79.5601 66.075 82.5128C66.2544 84.1335 66.4675 85.643 66.7157 87.0411C66.7376 87.1632 66.7648 87.2839 66.7957 87.4025C68.9675 99.7154 73.6946 111.143 80.4071 121.115C79.248 121.51 77.9623 121.804 76.5477 121.938C68.4586 122.699 59.9682 116.386 56.9608 108.422C56.9483 108.386 55.0422 102.839 54.5243 100.898C52.2624 92.4191 50.9627 81.5294 51.0008 71.8439C50.9871 62.2314 52.2836 51.4656 54.5243 43.0665C55.044 41.1184 56.9608 35.5421 56.9608 35.5421Z" fill="white"/>
<path opacity="0.8" d="M66.7974 87.4102C67.2632 89.1864 68.7128 90.551 70.5356 90.8867L79.4468 91.6963C81.2526 92.0284 82.7064 93.3744 83.1812 95.1533L87.7212 112.164C88.2302 114.072 87.9212 116.135 86.4741 117.479C85.1292 118.727 83.1132 120.194 80.4058 121.115C73.695 111.145 68.9697 99.7199 66.7974 87.4102ZM65.4663 73.542C65.5753 76.8549 65.78 79.8586 66.0796 82.5537C65.7258 79.5925 65.5191 76.5861 65.4663 73.542ZM66.0815 61.3994C65.7812 64.0972 65.5755 67.104 65.4663 70.4199C65.5192 67.3727 65.727 64.3635 66.0815 61.3994ZM80.5112 22.6934C83.6616 23.6249 85.739 25.32 86.9868 26.6895C88.1254 27.939 88.2801 29.7046 87.8442 31.3379L83.1812 48.8115C82.7064 50.5904 81.2525 51.9364 79.4468 52.2686L70.5356 53.0781C68.7134 53.4137 67.2637 54.7773 66.7974 56.5527C68.9812 44.1794 73.7449 32.6998 80.5112 22.6934Z" fill="white"/>
</g>
<defs>
<linearGradient id="paint0_linear_631_23248" x1="0" y1="0" x2="0" y2="144" gradientUnits="userSpaceOnUse">
<stop stop-color="#20EE56"/>
<stop offset="1" stop-color="#00954E"/>
</linearGradient>
<clipPath id="clip0_631_23248">
<rect width="144" height="144" fill="white"/>
</clipPath>
</defs>
</svg>
